<?xml version="1.0" encoding="UTF-8"?>
<svg version="1.1" xmlns="http://www.w3.org/2000/svg" width="32" height="32">
<path d="M0 0 C2.875 0.6875 2.875 0.6875 3.875 1.6875 C3.91592937 4.02047433 3.91741723 6.35455225 3.875 8.6875 C4.98875 8.625625 6.1025 8.56375 7.25 8.5 C8.44625 8.561875 9.6425 8.62375 10.875 8.6875 C12.875 11.6875 12.875 11.6875 12.5625 14.8125 C11.875 17.6875 11.875 17.6875 10.875 18.6875 C8.54202567 18.72842937 6.20794775 18.72991723 3.875 18.6875 C3.936875 19.80125 3.99875 20.915 4.0625 22.0625 C3.9696875 23.856875 3.9696875 23.856875 3.875 25.6875 C0.875 27.6875 0.875 27.6875 -2.25 27.375 C-5.125 26.6875 -5.125 26.6875 -6.125 25.6875 C-6.16592937 23.35452567 -6.16741723 21.02044775 -6.125 18.6875 C-7.23875 18.749375 -8.3525 18.81125 -9.5 18.875 C-10.69625 18.813125 -11.8925 18.75125 -13.125 18.6875 C-15.125 15.6875 -15.125 15.6875 -14.8125 12.5625 C-14.125 9.6875 -14.125 9.6875 -13.125 8.6875 C-10.79202567 8.64657063 -8.45794775 8.64508277 -6.125 8.6875 C-6.186875 7.57375 -6.24875 6.46 -6.3125 5.3125 C-6.250625 4.11625 -6.18875 2.92 -6.125 1.6875 C-3.125 -0.3125 -3.125 -0.3125 0 0 Z " fill="#000000" transform="translate(17.125,2.3125)"/>
</svg>
